<svg width="772" height="772" viewBox="0 0 772 772" fill="none" xmlns="http://www.w3.org/2000/svg">
<path d="M1.00003 2.50003L1 769.5M71 2.50003L71 769.5M141 2.50003L141 769.5M211 2.50003L211 769.5M281 2.50003L281 769.5M351 2.50003L351 769.5M421 2.50003L421 769.5M491 2.50003L491 769.5M561 2.50003L561 769.5M631 2.50003L631 769.5M701 2.50003L701 769.5M771 2.50003L771 769.5M769.5 1.00007L2.50006 1M769.5 71.0001L2.50006 71M769.5 141L2.50005 141M769.5 211L2.50005 211M769.5 281L2.50005 281M769.5 351L2.50005 351M769.5 421L2.50004 421M769.5 491L2.50004 491M769.5 561L2.50004 561M769.5 631L2.50003 631M769.5 701L2.50003 701M769.5 771L2.50003 771" stroke="white"/>
</svg>
